<svg width="44" height="47" viewBox="0 0 44 47" fill="none" xmlns="http://www.w3.org/2000/svg">
<path d="M42.5543 11.9464C42.1461 12.1578 41.6706 12.1985 41.2323 12.0595C40.7941 11.9204 40.429 11.6131 40.2173 11.205C38.5618 7.93456 36.056 5.17042 32.9632 3.20299C32.7705 3.08142 32.6036 2.92308 32.472 2.73701C32.3405 2.55093 32.2469 2.34077 32.1965 2.11852C32.1462 1.89627 32.1402 1.66628 32.1787 1.44169C32.2173 1.21709 32.2997 1.00229 32.4212 0.80955C32.5428 0.616807 32.7012 0.449896 32.8872 0.318346C33.0733 0.186797 33.2835 0.0931853 33.5057 0.0428566C33.728 -0.00747198 33.958 -0.0135322 34.1826 0.0250221C34.4071 0.0635763 34.6219 0.14599 34.8147 0.267558C38.4191 2.57544 41.346 5.79927 43.2958 9.60933C43.5072 10.0176 43.5479 10.4931 43.4088 10.9313C43.2698 11.3696 42.9624 11.7347 42.5543 11.9464ZM1.73365 12.1415C2.05139 12.1414 2.36299 12.054 2.63444 11.8888C2.90589 11.7236 3.12674 11.4871 3.27291 11.205C4.92837 7.93456 7.43415 5.17042 10.5269 3.20299C10.9162 2.95747 11.192 2.56738 11.2936 2.11852C11.3953 1.66966 11.3144 1.19881 11.0689 0.80955C10.8234 0.420288 10.4333 0.1445 9.98446 0.0428566C9.5356 -0.0587866 9.06475 0.0220408 8.67549 0.267558C5.07103 2.57544 2.14422 5.79927 0.194391 9.60933C0.0574574 9.87365 -0.00914004 10.1688 0.00100832 10.4663C0.0111567 10.7638 0.0977091 11.0537 0.252336 11.308C0.406963 11.5624 0.624459 11.7727 0.883893 11.9187C1.14333 12.0647 1.43597 12.1414 1.73365 12.1415ZM42.0796 34.6754C42.3868 35.2023 42.5497 35.8009 42.5518 36.4109C42.5539 37.0208 42.3951 37.6205 42.0915 38.1495C41.7878 38.6785 41.3501 39.1181 40.8223 39.424C40.2946 39.7298 39.6955 39.8911 39.0856 39.8915H30.2403C29.8422 41.8519 28.7787 43.6143 27.2298 44.8802C25.681 46.1462 23.7422 46.8377 21.7418 46.8377C19.7415 46.8377 17.8026 46.1462 16.2538 44.8802C14.705 43.6143 13.6415 41.8519 13.2434 39.8915H4.39808C3.7885 39.8903 3.18999 39.7285 2.66285 39.4223C2.13572 39.1162 1.69857 38.6765 1.39544 38.1477C1.09232 37.6188 0.933918 37.0194 0.936202 36.4098C0.938486 35.8002 1.10137 35.202 1.40845 34.6754C3.36179 31.3042 4.39808 26.5108 4.39808 20.8134C4.39808 16.2135 6.22537 11.8021 9.47795 8.54951C12.7305 5.29693 17.142 3.46965 21.7418 3.46965C26.3417 3.46965 30.7531 5.29693 34.0057 8.54951C37.2583 11.8021 39.0856 16.2135 39.0856 20.8134C39.0856 26.5087 40.1219 31.302 42.0796 34.6754ZM26.6458 39.8915H16.8379C17.1972 40.9049 17.8616 41.782 18.7398 42.4023C19.6179 43.0227 20.6667 43.3557 21.7418 43.3557C22.817 43.3557 23.8657 43.0227 24.7439 42.4023C25.622 41.782 26.2865 40.9049 26.6458 39.8915ZM39.0856 36.4228C36.7789 32.4619 35.6168 27.2111 35.6168 20.8134C35.6168 17.1335 34.155 13.6044 31.5529 11.0023C28.9509 8.40022 25.4217 6.9384 21.7418 6.9384C18.062 6.9384 14.5328 8.40022 11.9307 11.0023C9.32866 13.6044 7.86683 17.1335 7.86683 20.8134C7.86683 27.2132 6.70047 32.4641 4.39808 36.4228H39.0856Z" fill="#06FFFF" fill-opacity="0.8"/>
</svg>
