<svg width="56" height="39" viewBox="0 0 56 39" fill="none" xmlns="http://www.w3.org/2000/svg">
<path d="M48.5625 12.3141V12.1406C48.5591 8.92179 47.2789 5.83577 45.0028 3.55971C42.7267 1.28365 39.6407 0.00344322 36.4219 0H34.6875C33.7675 0 32.8852 0.365456 32.2347 1.01597C31.5842 1.66649 31.2188 2.54878 31.2188 3.46875V29.4844H27.75V6.9375C27.75 6.47751 27.5673 6.03637 27.242 5.71111C26.9168 5.38585 26.4756 5.20312 26.0156 5.20312H3.46875C2.54878 5.20312 1.66649 5.56858 1.01597 6.2191C0.365457 6.86962 0 7.7519 0 8.67187L0 31.2187C0.001584 32.6272 0.431849 34.0019 1.23359 35.1599C2.03533 36.318 3.17057 37.2045 4.48837 37.7018C5.80617 38.199 7.24411 38.2833 8.611 37.9436C9.9779 37.6038 11.209 36.856 12.1406 35.7997C12.9734 36.7457 14.0481 37.447 15.2493 37.8282C16.4506 38.2095 17.733 38.2563 18.9589 37.9637C20.1848 37.671 21.3078 37.05 22.2073 36.1672C23.1068 35.2844 23.7488 34.1733 24.0645 32.9531H41.8418C42.2612 34.5912 43.2644 36.0197 44.663 36.9702C46.0615 37.9207 47.759 38.3276 49.4365 38.1146C51.1139 37.9016 52.6558 37.0833 53.7724 35.8134C54.889 34.5436 55.5033 32.9097 55.5 31.2187V20.8125C55.4976 18.8141 54.8062 16.8777 53.5425 15.3296C52.2787 13.7816 50.5199 12.7165 48.5625 12.3141ZM34.6875 3.46875H36.4219C38.7218 3.46875 40.9275 4.38239 42.5538 6.00868C44.1801 7.63497 45.0938 9.8407 45.0938 12.1406V13.875C45.0938 14.335 45.2765 14.7761 45.6017 15.1014C45.927 15.4266 46.3681 15.6094 46.8281 15.6094C48.2081 15.6094 49.5315 16.1576 50.5073 17.1333C51.4831 18.1091 52.0312 19.4325 52.0312 20.8125V25.2156C50.9783 24.6022 49.7811 24.2798 48.5625 24.2812C47.0245 24.2827 45.5303 24.7943 44.3142 25.7358C43.098 26.6774 42.2285 27.9957 41.8418 29.4844H34.6875V3.46875ZM24.2812 8.67187V29.4844H24.0645C23.7488 28.2642 23.1068 27.1531 22.2073 26.2703C21.3078 25.3875 20.1848 24.7665 18.9589 24.4738C17.733 24.1812 16.4506 24.228 15.2493 24.6093C14.0481 24.9905 12.9734 25.6918 12.1406 26.6378C11.0839 25.4325 9.64138 24.6317 8.05961 24.3723C6.47784 24.1129 4.85507 24.411 3.46875 25.2156V8.67187H24.2812ZM6.9375 34.6875C6.25145 34.6875 5.5808 34.4841 5.01037 34.1029C4.43993 33.7218 3.99533 33.18 3.73279 32.5462C3.47025 31.9124 3.40156 31.2149 3.5354 30.542C3.66924 29.8692 3.99961 29.2511 4.48472 28.766C4.96984 28.2809 5.58791 27.9505 6.26078 27.8166C6.93365 27.6828 7.6311 27.7515 8.26493 28.014C8.89876 28.2766 9.44051 28.7212 9.82166 29.2916C10.2028 29.862 10.4062 30.5327 10.4062 31.2187C10.4062 32.1387 10.0408 33.021 9.39028 33.6715C8.73976 34.322 7.85747 34.6875 6.9375 34.6875ZM17.3438 34.6875C16.6577 34.6875 15.987 34.4841 15.4166 34.1029C14.8462 33.7218 14.4016 33.18 14.139 32.5462C13.8765 31.9124 13.8078 31.2149 13.9417 30.542C14.0755 29.8692 14.4059 29.2511 14.891 28.766C15.3761 28.2809 15.9942 27.9505 16.667 27.8166C17.3399 27.6828 18.0374 27.7515 18.6712 28.014C19.305 28.2766 19.8468 28.7212 20.2279 29.2916C20.6091 29.862 20.8125 30.5327 20.8125 31.2187C20.8125 32.1387 20.447 33.021 19.7965 33.6715C19.146 34.322 18.2637 34.6875 17.3438 34.6875ZM48.5625 34.6875C47.8764 34.6875 47.2058 34.4841 46.6354 34.1029C46.0649 33.7218 45.6203 33.18 45.3578 32.5462C45.0952 31.9124 45.0266 31.2149 45.1604 30.542C45.2942 29.8692 45.6246 29.2511 46.1097 28.766C46.5948 28.2809 47.2129 27.9505 47.8858 27.8166C48.5587 27.6828 49.2561 27.7515 49.8899 28.014C50.5238 28.2766 51.0655 28.7212 51.4467 29.2916C51.8278 29.862 52.0312 30.5327 52.0312 31.2187C52.0312 32.1387 51.6658 33.021 51.0153 33.6715C50.3648 34.322 49.4825 34.6875 48.5625 34.6875Z" fill="#06FFFF" fill-opacity="0.8"/>
</svg>
