<svg width="44" height="44" viewBox="0 0 44 44" fill="none" xmlns="http://www.w3.org/2000/svg">
<path d="M43.3247 3.28392C43.2733 2.43825 42.9142 1.64063 42.3151 1.04155C41.7161 0.442472 40.9184 0.0833571 40.0728 0.0319655C37.3455 -0.130632 30.3754 0.118684 24.5913 5.90066L23.5615 6.94345H10.9158C10.4585 6.94087 10.0053 7.02925 9.58246 7.20343C9.15965 7.37761 8.7757 7.63413 8.45294 7.95806L1.01681 15.3985C0.560771 15.8543 0.240767 16.4281 0.0927084 17.0555C-0.05535 17.683 -0.025603 18.3394 0.178611 18.9509C0.382825 19.5624 0.753425 20.1049 1.24882 20.5175C1.74421 20.9301 2.34479 21.1965 2.98316 21.2867L11.3233 22.4509L20.9079 32.0355L22.0721 40.38C22.1616 41.0184 22.428 41.6191 22.841 42.114C23.2539 42.609 23.7972 42.9786 24.4092 43.181C24.7657 43.3001 25.139 43.3609 25.5149 43.361C25.9699 43.3618 26.4207 43.2726 26.8412 43.0985C27.2616 42.9244 27.6434 42.6688 27.9647 42.3464L35.4051 34.9102C35.7291 34.5875 35.9856 34.2035 36.1598 33.7807C36.3339 33.3579 36.4223 32.9047 36.4197 32.4474V19.8017L37.4539 18.7676C43.238 12.9834 43.4873 6.01339 43.3247 3.28392ZM10.9158 10.4122H20.0928L11.5228 18.98L3.46661 17.857L10.9158 10.4122ZM27.0476 8.36347C28.7142 6.68663 30.7194 5.38469 32.9293 4.54463C35.1391 3.70457 37.5028 3.34572 39.8625 3.49204C40.0145 5.85292 39.6593 8.21897 38.821 10.4312C37.9826 12.6434 36.6804 14.6506 35.0019 16.3177L22.5447 28.7706L14.5926 20.8184L27.0476 8.36347ZM32.951 32.4474L25.5084 39.8966L24.3832 31.8382L32.951 23.2704V32.4474ZM16.8733 34.507C15.8977 36.6446 12.635 41.631 3.46661 41.631C3.00663 41.631 2.56548 41.4482 2.24022 41.123C1.91497 40.7977 1.73224 40.3566 1.73224 39.8966C1.73224 30.7282 6.71857 27.4654 8.85618 26.4877C9.06345 26.3932 9.2873 26.3404 9.51496 26.3324C9.74261 26.3244 9.96962 26.3613 10.183 26.441C10.3964 26.5207 10.592 26.6417 10.7586 26.797C10.9253 26.9523 11.0597 27.1389 11.1542 27.3462C11.2488 27.5535 11.3015 27.7773 11.3095 28.005C11.3175 28.2326 11.2806 28.4596 11.2009 28.673C11.1212 28.8864 11.0002 29.082 10.8449 29.2487C10.6896 29.4153 10.503 29.5497 10.2957 29.6443C8.90171 30.2795 5.82536 32.3239 5.28337 38.0798C11.0393 37.5378 13.0881 34.4615 13.7189 33.0675C13.8135 32.8602 13.9479 32.6736 14.1145 32.5183C14.2812 32.363 14.4768 32.242 14.6902 32.1623C14.9036 32.0826 15.1306 32.0456 15.3582 32.0537C15.5859 32.0617 15.8097 32.1144 16.017 32.209C16.2242 32.3035 16.4109 32.4379 16.5662 32.6045C16.7215 32.7712 16.8425 32.9668 16.9222 33.1802C17.0019 33.3936 17.0388 33.6206 17.0308 33.8482C17.0228 34.0759 16.97 34.2997 16.8755 34.507H16.8733Z" fill="#06FFFF" fill-opacity="0.8"/>
</svg>
