<svg width="57" height="38" viewBox="0 0 57 38" fill="none" xmlns="http://www.w3.org/2000/svg">
<path d="M56.0883 17.9906C56.0062 17.8055 54.0211 13.4016 49.6078 8.98828C43.7273 3.10781 36.3 0 28.125 0C19.95 0 12.5226 3.10781 6.64216 8.98828C2.22888 13.4016 0.234353 17.8125 0.161696 17.9906C0.0550865 18.2304 0 18.4899 0 18.7523C0 19.0148 0.0550865 19.2743 0.161696 19.5141C0.243728 19.6992 2.22888 24.1008 6.64216 28.5141C12.5226 34.3922 19.95 37.5 28.125 37.5C36.3 37.5 43.7273 34.3922 49.6078 28.5141C54.0211 24.1008 56.0062 19.6992 56.0883 19.5141C56.1949 19.2743 56.25 19.0148 56.25 18.7523C56.25 18.4899 56.1949 18.2304 56.0883 17.9906ZM28.125 33.75C20.9109 33.75 14.6086 31.1273 9.39138 25.957C7.25071 23.8282 5.42948 21.4007 3.98435 18.75C5.42909 16.0991 7.25036 13.6715 9.39138 11.543C14.6086 6.37266 20.9109 3.75 28.125 3.75C35.339 3.75 41.6414 6.37266 46.8586 11.543C49.0034 13.671 50.8286 16.0986 52.2773 18.75C50.5875 21.9047 43.2258 33.75 28.125 33.75ZM28.125 7.5C25.8999 7.5 23.7249 8.1598 21.8748 9.39597C20.0248 10.6321 18.5828 12.3891 17.7313 14.4448C16.8798 16.5005 16.6571 18.7625 17.0911 20.9448C17.5252 23.1271 18.5967 25.1316 20.17 26.705C21.7434 28.2783 23.7479 29.3498 25.9302 29.7838C28.1125 30.2179 30.3745 29.9951 32.4302 29.1436C34.4858 28.2922 36.2428 26.8502 37.479 25.0002C38.7152 23.1501 39.375 20.975 39.375 18.75C39.3719 15.7673 38.1856 12.9076 36.0765 10.7985C33.9674 8.68936 31.1077 7.5031 28.125 7.5ZM28.125 26.25C26.6416 26.25 25.1916 25.8101 23.9582 24.986C22.7248 24.1619 21.7635 22.9906 21.1959 21.6201C20.6282 20.2497 20.4797 18.7417 20.7691 17.2868C21.0585 15.832 21.7728 14.4956 22.8217 13.4467C23.8706 12.3978 25.2069 11.6835 26.6618 11.3941C28.1167 11.1047 29.6247 11.2532 30.9951 11.8209C32.3655 12.3886 33.5369 13.3499 34.361 14.5832C35.1851 15.8166 35.625 17.2666 35.625 18.75C35.625 20.7391 34.8348 22.6468 33.4283 24.0533C32.0218 25.4598 30.1141 26.25 28.125 26.25Z" fill="#06FFFF" fill-opacity="0.8"/>
</svg>
